<svg width="94" height="27" viewBox="0 0 94 27" fill="none" xmlns="http://www.w3.org/2000/svg">
<path d="M13.9952 26.468C10.1792 26.468 7.02317 25.208 4.52717 22.688C2.05517 20.168 0.819172 17.072 0.819172 13.4C0.819172 9.728 2.05517 6.632 4.52717 4.112C7.02317 1.592 10.1792 0.331998 13.9952 0.331998C16.2992 0.331998 18.4112 0.883998 20.3312 1.988C22.2752 3.092 23.7872 4.58 24.8672 6.452L21.9512 8.144C21.2312 6.752 20.1512 5.648 18.7112 4.832C17.2952 3.992 15.7232 3.572 13.9952 3.572C11.0912 3.572 8.71517 4.508 6.86717 6.38C5.04317 8.252 4.13117 10.592 4.13117 13.4C4.13117 16.184 5.04317 18.512 6.86717 20.384C8.71517 22.256 11.0912 23.192 13.9952 23.192C15.7232 23.192 17.2952 22.784 18.7112 21.968C20.1512 21.128 21.2312 20.024 21.9512 18.656L24.8672 20.312C23.8112 22.184 22.3112 23.684 20.3672 24.812C18.4232 25.916 16.2992 26.468 13.9952 26.468Z" fill="#38BFF2"/>
<path d="M43.6325 23.732C41.7845 25.556 39.5405 26.468 36.9005 26.468C34.2605 26.468 32.0165 25.556 30.1685 23.732C28.3445 21.908 27.4325 19.664 27.4325 17C27.4325 14.336 28.3445 12.092 30.1685 10.268C32.0165 8.444 34.2605 7.532 36.9005 7.532C39.5405 7.532 41.7845 8.444 43.6325 10.268C45.4805 12.092 46.4045 14.336 46.4045 17C46.4045 19.664 45.4805 21.908 43.6325 23.732ZM36.9005 23.408C38.7005 23.408 40.2125 22.796 41.4365 21.572C42.6605 20.348 43.2725 18.824 43.2725 17C43.2725 15.176 42.6605 13.652 41.4365 12.428C40.2125 11.204 38.7005 10.592 36.9005 10.592C35.1245 10.592 33.6245 11.204 32.4005 12.428C31.1765 13.652 30.5645 15.176 30.5645 17C30.5645 18.824 31.1765 20.348 32.4005 21.572C33.6245 22.796 35.1245 23.408 36.9005 23.408ZM78.1325 18.44C78.4445 20.048 79.1765 21.296 80.3285 22.184C81.5045 23.072 82.9445 23.516 84.6485 23.516C87.0245 23.516 88.7525 22.64 89.8325 20.888L92.4965 22.4C90.7445 25.112 88.1045 26.468 84.5765 26.468C81.7205 26.468 79.3925 25.58 77.5925 23.804C75.8165 22.004 74.9285 19.736 74.9285 17C74.9285 14.288 75.8045 12.032 77.5565 10.232C79.3085 8.432 81.5765 7.532 84.3605 7.532C87.0005 7.532 89.1485 8.468 90.8045 10.34C92.4845 12.188 93.3245 14.42 93.3245 17.036C93.3245 17.492 93.2885 17.96 93.2165 18.44H78.1325ZM84.3605 10.484C82.6805 10.484 81.2885 10.964 80.1845 11.924C79.0805 12.86 78.3965 14.12 78.1325 15.704H90.1565C89.8925 14 89.2205 12.704 88.1405 11.816C87.0605 10.928 85.8005 10.484 84.3605 10.484Z" fill="black"/>
<path d="M60.2487 0.799998C63.6807 0.799998 66.5247 2.024 68.7807 4.472C71.0607 6.896 72.2007 9.872 72.2007 13.4C72.2007 16.928 71.0607 19.916 68.7807 22.364C66.5247 24.788 63.6807 26 60.2487 26H50.4207V0.799998H60.2487ZM60.2487 22.832C62.8167 22.832 64.9167 21.932 66.5487 20.132C68.1807 18.332 68.9967 16.088 68.9967 13.4C68.9967 10.712 68.1807 8.468 66.5487 6.668C64.9167 4.868 62.8167 3.968 60.2487 3.968H53.7687V22.832H60.2487Z" fill="#F15525"/>
</svg>
