<svg width="60" height="68" viewBox="0 0 60 68" fill="none" xmlns="http://www.w3.org/2000/svg">
<g clip-path="url(#clip0_24659_49)">
<g filter="url(#filter0_f_24659_49)">
<path d="M30.51 56.523C30.5041 56.6516 30.4488 56.7729 30.3557 56.8618C30.2625 56.9506 30.1387 57.0001 30.01 57C29.72 57 29.5 56.79 29.49 56.523C29.345 53.355 27.734 51.306 24.658 50.376C14.53 47.968 7 38.863 7 28C7 15.297 17.297 5 30 5C42.703 5 53 15.297 53 28C53 38.863 45.47 47.968 35.342 50.376C32.266 51.306 30.655 53.356 30.512 56.523H30.51Z" fill="#FF4433"/>
</g>
<path d="M30.51 56.523C30.5041 56.6516 30.4488 56.7729 30.3557 56.8618C30.2625 56.9506 30.1387 57.0001 30.01 57C29.72 57 29.5 56.79 29.49 56.523C29.345 53.355 27.734 51.306 24.658 50.376C14.53 47.968 7 38.863 7 28C7 15.297 17.297 5 30 5C42.703 5 53 15.297 53 28C53 38.863 45.47 47.968 35.342 50.376C32.266 51.306 30.655 53.356 30.512 56.523H30.51Z" fill="#FF4433"/>
<path fill-rule="evenodd" clip-rule="evenodd" d="M28 35.2V40H39.4C39.4788 40 39.5568 39.9845 39.6296 39.9543C39.7024 39.9242 39.7685 39.88 39.8243 39.8243C39.88 39.7685 39.9242 39.7024 39.9543 39.6296C39.9845 39.5568 40 39.4788 40 39.4V25.6C40 25.5212 39.9845 25.4432 39.9543 25.3704C39.9242 25.2976 39.88 25.2315 39.8243 25.1757C39.7685 25.12 39.7024 25.0758 39.6296 25.0457C39.5568 25.0155 39.4788 25 39.4 25H34.446L34.288 27H38V28H34.21L34.051 30H38V31H33.972L33.599 35.715C33.5966 35.7549 33.5863 35.7939 33.5687 35.8299C33.5512 35.8658 33.5267 35.8978 33.4966 35.9242C33.4666 35.9506 33.4317 35.9708 33.3938 35.9837C33.3559 35.9965 33.3159 36.0017 33.276 35.999C33.1996 35.9915 33.1289 35.9555 33.0778 35.8983C33.0266 35.8411 32.9989 35.7667 33 35.69V19.4C33 19.2939 32.9579 19.1922 32.8828 19.1172C32.8078 19.0421 32.7061 19 32.6 19H32V18.4C32 18.2939 31.9579 18.1922 31.8828 18.1172C31.8078 18.0421 31.7061 18 31.6 18H21.4C21.2939 18 21.1922 18.0421 21.1172 18.1172C21.0421 18.1922 21 18.2939 21 18.4V19H20.4C20.2939 19 20.1922 19.0421 20.1172 19.1172C20.0421 19.1922 20 19.2939 20 19.4V39.4C20 39.5591 20.0632 39.7117 20.1757 39.8243C20.2883 39.9368 20.4409 40 20.6 40H25V35.2C25 35.09 25.09 35 25.2 35H27.8C27.91 35 28 35.09 28 35.2ZM23.5 32V26H25.5V32H23.5ZM27.5 26V32H29.5V26H27.5ZM23.5 24V21H25.5V24H23.5ZM27.5 21V24H29.5V21H27.5ZM35 34V33H38V34H35Z" fill="white"/>
<path d="M34.5254 24L34.6044 23H37.5994C37.8194 23 37.9994 23.18 37.9994 23.4V24H34.5254Z" fill="white"/>
<path d="M30 68C27.79 68 26 66.21 26 64C26 61.79 27.79 60 30 60C32.21 60 34 61.79 34 64C34 66.21 32.21 68 30 68Z" fill="white"/>
<path fill-rule="evenodd" clip-rule="evenodd" d="M29.9997 66C30.266 66.006 30.5309 65.9588 30.7787 65.861C31.0266 65.7633 31.2524 65.617 31.4429 65.4308C31.6334 65.2446 31.7848 65.0222 31.8882 64.7766C31.9916 64.5311 32.0449 64.2674 32.0449 64.001C32.045 63.7346 31.9918 63.4708 31.8886 63.2253C31.7853 62.9797 31.634 62.7572 31.4436 62.5709C31.2532 62.3846 31.0274 62.2382 30.7797 62.1403C30.5319 62.0425 30.267 61.9951 30.0007 62.001C29.4781 62.0125 28.9809 62.2282 28.6153 62.6018C28.2498 62.9754 28.0451 63.4773 28.0449 64C28.0448 64.5227 28.2493 65.0246 28.6146 65.3984C28.98 65.7722 29.4772 65.9882 29.9997 66Z" fill="#FF4433"/>
</g>
<defs>
<filter id="filter0_f_24659_49" x="1" y="-1" width="58" height="64" filterUnits="userSpaceOnUse" color-interpolation-filters="sRGB">
<feFlood flood-opacity="0" result="BackgroundImageFix"/>
<feBlend mode="normal" in="SourceGraphic" in2="BackgroundImageFix" result="shape"/>
<feGaussianBlur stdDeviation="3" result="effect1_foregroundBlur_24659_49"/>
</filter>
<clipPath id="clip0_24659_49">
<rect width="60" height="68" fill="white"/>
</clipPath>
</defs>
</svg>
